<svg width="96" height="92" viewBox="0 0 96 92" fill="none" xmlns="http://www.w3.org/2000/svg">
<mask id="mask0_304_2" style="mask-type:luminance" maskUnits="userSpaceOnUse" x="0" y="1" width="96" height="69">
<path d="M0 1.08322C31.4317 10.0026 62.0708 11.0171 95.5125 1.08322L94.6896 21.1915C88.7401 23.566 84.5385 29.3526 84.5385 36.1103C84.5385 42.4035 88.1844 47.854 93.4917 50.492L94.7183 69.6472C64.114 63.7707 34.4969 64.7853 0.794271 69.6472L2.02084 50.492C7.32812 47.854 10.9724 42.4035 10.9724 36.1103C10.9724 29.3526 6.77136 23.566 0.822396 21.1915L0 1.08322Z" fill="white"/>
</mask>
<g mask="url(#mask0_304_2)">
<path d="M0 1.08322C31.4317 10.0026 62.0708 11.0171 95.5125 1.08322L94.6896 21.1915C88.7401 23.566 84.5385 29.3526 84.5385 36.1103C84.5385 42.4035 88.1844 47.854 93.4917 50.492L94.7183 69.6472C64.114 63.7707 34.4969 64.7854 0.794271 69.6472L2.02084 50.492C7.32812 47.854 10.9724 42.4035 10.9724 36.1103C10.9724 29.3526 6.77136 23.566 0.822396 21.1915L0 1.08322Z" fill="url(#paint0_linear_304_2)"/>
</g>
<path d="M54.4188 43.1362C54.0369 44.1968 53.503 45.0561 52.8041 45.6988C52.1177 46.3566 51.3417 46.8228 50.4901 47.1014C49.6385 47.379 48.774 47.492 47.9109 47.4296C47.0333 47.3654 46.2442 47.1509 45.5073 46.7717C44.7833 46.3941 44.1854 45.8894 43.7401 45.2326C43.2964 44.5884 43.0672 43.8061 43.0541 42.9086V30.5624C43.0672 29.6914 43.2964 28.9348 43.753 28.3029C44.2104 27.6848 44.8093 27.1796 45.5464 26.8253C46.2964 26.4592 47.0958 26.2577 47.9604 26.1821C48.825 26.1196 49.6896 26.2196 50.5281 26.4728C51.3546 26.7248 52.1046 27.1534 52.753 27.7472C53.4005 28.3525 53.8849 29.1362 54.1896 30.1081L63.265 27.3061C62.7312 25.3108 61.9317 23.6196 60.851 22.255C59.7833 20.893 58.5369 19.8072 57.1385 18.9858C55.7286 18.1785 54.2661 17.5848 52.7401 17.2316C51.2156 16.8644 49.7401 16.6884 48.3172 16.702C46.7401 16.702 45.1765 16.8905 43.6516 17.2566C42.127 17.6222 40.6896 18.1785 39.3432 18.9233C37.9942 19.6681 36.8 20.59 35.7702 21.7134C34.7417 22.8244 33.9396 24.1248 33.3562 25.6144C32.7573 27.104 32.4656 28.7706 32.4526 30.6378V42.9858C32.4656 44.854 32.7573 46.5206 33.3562 48.0102C33.9396 49.4868 34.7417 50.7873 35.7702 51.8853C36.8 52.9972 37.9942 53.9181 39.3432 54.6493C40.6896 55.3826 42.127 55.9384 43.6516 56.3045C45.1765 56.6701 46.7401 56.8472 48.3172 56.8472C49.7401 56.8472 51.2156 56.6701 52.7156 56.2914C54.227 55.9253 55.6896 55.3192 57.101 54.4868C58.524 53.6534 59.8078 52.5545 60.9526 51.1914C62.0958 49.828 63.024 48.1482 63.7234 46.1665L54.4188 43.1362Z" fill="white"/>
<path d="M8.1391 82.9748C8.00003 83.3644 7.80421 83.6795 7.54743 83.9149C7.29639 84.1561 7.01201 84.3264 6.69899 84.4285C6.38701 84.5311 6.07034 84.5728 5.75315 84.5493C5.43181 84.5259 5.14274 84.4478 4.87243 84.3082C4.60681 84.1691 4.38754 83.9842 4.22451 83.7431C4.06149 83.5077 3.97711 83.2212 3.97243 82.8915V78.3644C3.97711 78.0457 4.06149 77.7681 4.22921 77.5362C4.39639 77.3097 4.61566 77.1248 4.88597 76.9946C5.16149 76.8602 5.45525 76.7862 5.77139 76.7586C6.08858 76.7358 6.40577 76.7717 6.71358 76.8644C7.01618 76.9581 7.29118 77.1144 7.52921 77.3332C7.76722 77.5545 7.9443 77.842 8.05525 78.1977L11.3834 77.1701C11.1881 76.4384 10.8948 75.8192 10.498 75.3192C10.1068 74.8192 9.64951 74.4201 9.13701 74.1196C8.61982 73.8244 8.08389 73.6066 7.52399 73.4764C6.96462 73.342 6.42451 73.2769 5.90263 73.2821C5.32399 73.2821 4.75159 73.3514 4.19222 73.4858C3.63285 73.6196 3.10629 73.8244 2.61201 74.0972C2.11774 74.3696 1.67973 74.7081 1.30212 75.1196C0.924511 75.5269 0.630762 76.0034 0.416699 76.5509C0.197429 77.0962 0.0896159 77.7081 0.0854492 78.393V82.9191C0.0896159 83.6051 0.197429 84.216 0.416699 84.7618C0.630762 85.303 0.924511 85.7811 1.30212 86.1837C1.67973 86.591 2.11774 86.9285 2.61201 87.1967C3.10629 87.466 3.63285 87.6691 4.19222 87.803C4.75159 87.9373 5.32399 88.0024 5.90263 88.0024C6.42451 88.0024 6.96462 87.9373 7.51514 87.7993C8.06982 87.6639 8.60525 87.4425 9.12295 87.1363C9.64534 86.8316 10.1157 86.4285 10.5354 85.9285C10.9552 85.4285 11.2948 84.8123 11.5516 84.0858L8.1391 82.9748Z" fill="#C72F27"/>
<path d="M17.3677 84.5859C17.0604 84.5849 16.7573 84.5141 16.4734 84.388C16.1792 84.2578 15.9369 84.0729 15.7469 83.8412C15.5593 83.6094 15.4578 83.3359 15.4526 83.0313V78.2812C15.4578 77.9766 15.5593 77.7178 15.7469 77.5088C15.9369 77.2959 16.1792 77.138 16.4734 77.0271C16.7573 76.9219 17.0604 76.8672 17.3677 76.8646V73.1432C16.6374 73.1495 15.9328 73.2656 15.2469 73.4766C14.5568 73.6938 13.9369 74.014 13.3822 74.4401C12.8281 74.8697 12.3901 75.4027 12.0635 76.0416C11.7375 76.6797 11.5739 77.4255 11.5651 78.2812V82.9479C11.5739 83.8141 11.7375 84.5677 12.0635 85.2073C12.3901 85.8453 12.8281 86.3724 13.3822 86.7943C13.9369 87.2162 14.5568 87.5261 15.2469 87.7344C15.9328 87.9417 16.6374 88.0521 17.3677 88.0583V84.5859ZM17.3822 76.8646C17.6896 76.8646 17.9838 76.9203 18.2729 77.0271C18.562 77.138 18.7989 77.2959 18.9901 77.5088C19.1817 77.7178 19.2781 77.9766 19.2833 78.2812V83.0313C19.2781 83.3359 19.1817 83.6094 18.9901 83.8412C18.7989 84.0729 18.562 84.2578 18.2729 84.388C17.9838 84.5172 17.6896 84.5859 17.3822 84.5859H17.3677V88.0583H17.3822C18.1088 88.0531 18.8172 87.9427 19.5021 87.7344C20.1869 87.5261 20.8078 87.2162 21.3573 86.7943C21.9084 86.3724 22.3458 85.8453 22.6713 85.2073C22.9994 84.5677 23.1609 83.8141 23.1713 82.9479V78.2812C23.1609 77.4255 22.9994 76.6797 22.6713 76.0416C22.3458 75.4027 21.9084 74.8697 21.3573 74.4401C20.8078 74.014 20.1869 73.6938 19.5021 73.4766C18.8172 73.264 18.1088 73.1484 17.3822 73.1432H17.3677V76.8646H17.3822Z" fill="#C72F27"/>
<path d="M54.674 90.7891V87.475C55.2052 87.7161 55.7636 87.8635 56.3459 87.9286C56.4317 87.9375 56.5177 87.9453 56.6036 87.9505V84.949C56.5751 84.9542 56.5464 84.9583 56.5188 84.9609C56.188 85.0026 55.8615 85.0026 55.5412 84.9521C55.2183 84.901 54.9292 84.8083 54.674 84.6693V76.3099C54.9484 76.1755 55.2521 76.0869 55.5864 76.0364C55.9172 75.9896 56.2573 75.9896 56.5932 76.0323L56.6036 76.0339V73.1443C56.5385 73.1432 56.4735 73.1432 56.4068 73.1432C55.7964 73.1432 55.1713 73.1901 54.524 73.2771C53.8807 73.3656 53.2417 73.486 52.6036 73.6484C51.9656 73.8099 51.3495 74.0052 50.7573 74.2265V92C52.1661 91.6703 53.4787 91.2641 54.674 90.7891ZM56.6036 87.9505C57.1036 87.9844 57.6011 87.9557 58.0984 87.8687C58.6817 87.762 59.2312 87.5807 59.7531 87.3214C60.2755 87.0625 60.7364 86.7292 61.1375 86.3229C61.5437 85.9141 61.8563 85.4427 62.0839 84.901C62.312 84.3594 62.424 83.7526 62.4197 83.0859V78.1145C62.3459 77.1885 62.1349 76.4063 61.7912 75.7683C61.4448 75.1292 61.0021 74.6197 60.4527 74.2317C59.9031 73.8473 59.2833 73.5693 58.5932 73.3984C57.9615 73.2412 57.3 73.1547 56.6036 73.1443V76.0339C56.9396 76.0797 57.2531 76.1719 57.536 76.3099C57.8251 76.4479 58.0568 76.638 58.2391 76.8792C58.4213 77.1197 58.5177 77.4115 58.5333 77.7536V83.2813C58.4901 83.6146 58.3693 83.8974 58.1792 84.1328C57.9823 84.3646 57.7401 84.5531 57.4511 84.6875C57.1869 84.8151 56.9031 84.9036 56.6036 84.949V87.9505Z" fill="#C72F27"/>
<path d="M68.7702 73.2369C68.2311 73.2515 67.6973 73.3254 67.1687 73.4582C66.4786 73.6302 65.8354 73.9026 65.239 74.2822C64.6426 74.6578 64.1245 75.1379 63.6921 75.7265L65.5931 77.4765C65.8546 77.1937 66.1619 76.953 66.5161 76.763C66.8702 76.5729 67.2478 76.4349 67.6401 76.3551C68.0254 76.2786 68.403 76.2639 68.7702 76.3098V73.2369ZM68.5021 78.5035C67.6062 78.5087 66.8234 78.6473 66.153 78.9202C65.4759 79.1885 64.9171 79.5546 64.4745 80.013C64.0281 80.4713 63.6973 80.9895 63.4811 81.564C63.2677 82.1327 63.1661 82.7249 63.1843 83.3359C63.2026 83.9478 63.3417 84.5405 63.5931 85.1093C63.851 85.6838 64.2286 86.1978 64.7218 86.6598C65.2207 87.1187 65.8354 87.4843 66.5775 87.7525C67.2155 87.9879 67.9473 88.1239 68.7702 88.1598V85.1786C68.4265 85.1431 68.1254 85.0583 67.8677 84.9286C67.5281 84.7525 67.2713 84.526 67.0942 84.2525C66.9135 83.9749 66.8197 83.6796 66.8051 83.3687C66.7859 83.0546 66.8562 82.7577 67.0098 82.4749C67.1635 82.1978 67.4057 81.9624 67.7322 81.7812C68.0125 81.6223 68.3587 81.5249 68.7702 81.488V78.5051C68.6802 78.5035 68.5906 78.5026 68.5021 78.5035ZM68.7702 88.1598C68.903 88.165 69.0359 88.1681 69.1739 88.1692C69.765 88.1692 70.3718 88.1223 70.9917 88.0353C71.6114 87.952 72.2311 87.8265 72.8458 87.6692C73.4603 87.5119 74.0526 87.3265 74.627 87.1135V78.1978C74.6218 77.4114 74.4734 76.7177 74.1791 76.1155C73.8849 75.5087 73.4838 74.9999 72.9811 74.5833C72.4786 74.1666 71.9041 73.8473 71.265 73.6197C70.6218 73.3983 69.951 73.2682 69.2521 73.2411C69.0906 73.2343 68.9302 73.2327 68.7702 73.2369V76.3098L68.7999 76.3139C69.1775 76.3697 69.5229 76.4947 69.8302 76.6978C70.1374 76.8973 70.3849 77.1849 70.5671 77.5546C70.753 77.9254 70.8458 78.3879 70.851 78.9478C70.4969 78.7718 70.1098 78.6526 69.6999 78.5921C69.3797 78.5415 69.0723 78.5139 68.7702 78.5051V81.488C68.8379 81.4817 68.9057 81.4775 68.977 81.4749C69.3171 81.4624 69.6437 81.4807 69.951 81.526C70.2635 81.5728 70.5254 81.6416 70.739 81.7249V85.0025C70.4734 85.0728 70.2078 85.1239 69.9369 85.151C69.6713 85.1838 69.3963 85.1978 69.1166 85.1978C68.9969 85.1968 68.8822 85.19 68.7702 85.1786V88.1598Z" fill="#C72F27"/>
<path d="M75.2833 85.6693C75.7391 86.2672 76.2443 86.7474 76.7937 87.1041C77.3432 87.4661 77.9265 87.725 78.5464 87.8828C79.1661 88.0391 79.8145 88.1187 80.4849 88.1135C81.1697 88.1135 81.8224 88.0172 82.4473 87.8177C83.0724 87.6187 83.6271 87.3213 84.1167 86.9286C84.6047 86.5354 84.9969 86.0443 85.2807 85.4521C85.5645 84.8646 85.7104 84.1745 85.714 83.3917C85.7052 82.7161 85.5751 82.1328 85.3224 81.651C85.0708 81.1651 84.7364 80.763 84.3251 80.4385C83.9109 80.1104 83.4631 79.8515 82.9787 79.6474C82.4943 79.4437 82.0177 79.2864 81.5473 79.1703C81.3885 79.1417 81.1973 79.0911 80.9735 79.013C80.7505 78.9385 80.536 78.837 80.3224 78.7161C80.1073 78.5921 79.9303 78.4437 79.7989 78.2771C79.6645 78.1052 79.6036 77.9115 79.6177 77.6979C79.6557 77.3229 79.7765 77.0459 79.9812 76.8645C80.1817 76.6797 80.4344 76.5729 80.7312 76.5459C81.0307 76.5131 81.338 76.5364 81.6636 76.6145C81.9901 76.6937 82.2973 76.8047 82.5828 76.9479C82.8719 77.0921 83.1036 77.25 83.2807 77.4203L85.2104 74.7823C84.7131 74.388 84.1896 74.0781 83.6505 73.8568C83.1036 73.6344 82.5724 73.4817 82.0464 73.3932C81.524 73.3063 81.0396 73.2683 80.5959 73.2823C79.7297 73.3011 78.9708 73.4583 78.3172 73.7448C77.6645 74.0364 77.1245 74.4255 76.7052 74.9027C76.286 75.3844 75.9864 75.9167 75.8145 76.5036C75.6427 77.0869 75.6011 77.6849 75.6896 78.2907C75.7817 78.9026 76.0099 79.475 76.3823 80.0219C76.7521 80.5677 77.2688 81.0458 77.9344 81.4479C78.6011 81.8463 79.4213 82.1328 80.4005 82.3083C80.8391 82.3791 81.1792 82.5036 81.4317 82.6838C81.6776 82.8687 81.8328 83.0859 81.8927 83.3411C81.9527 83.5911 81.9213 83.8594 81.7989 84.1417C81.6688 84.4338 81.4317 84.6187 81.0959 84.7073C80.7599 84.7943 80.3677 84.7943 79.9161 84.6979C79.4631 84.6005 78.9943 84.4245 78.5084 84.1651C78.0229 83.9062 77.562 83.5729 77.1297 83.1693L75.2833 85.6693Z" fill="#C72F27"/>
<path d="M85.0281 85.6693C85.4863 86.2672 85.989 86.7474 86.5385 87.1041C87.089 87.4661 87.6713 87.725 88.2911 87.8828C88.9109 88.0391 89.5593 88.1187 90.2311 88.1135C90.9161 88.1135 91.5682 88.0172 92.1921 87.8177C92.8171 87.6187 93.3718 87.3213 93.8614 86.9286C94.351 86.5354 94.7417 86.0443 95.0265 85.4521C95.3119 84.8646 95.4551 84.1745 95.4603 83.3917C95.4499 82.7161 95.3197 82.1328 95.0682 81.651C94.8171 81.1651 94.4811 80.763 94.0707 80.4385C93.6557 80.1104 93.2087 79.8515 92.7234 79.6474C92.239 79.4437 91.7635 79.2864 91.2937 79.1703C91.1349 79.1417 90.9431 79.0911 90.7207 79.013C90.4969 78.9385 90.2817 78.837 90.0671 78.7161C89.8535 78.5921 89.6765 78.4437 89.5447 78.2771C89.4109 78.1052 89.3494 77.9115 89.3639 77.6979C89.4005 77.3229 89.5229 77.0459 89.727 76.8645C89.9275 76.6797 90.1791 76.5729 90.4786 76.5459C90.7754 76.5131 91.0827 76.5364 91.4093 76.6145C91.7363 76.6937 92.0437 76.8047 92.3275 76.9479C92.6166 77.0921 92.851 77.25 93.0281 77.4203L94.9562 74.7823C94.4578 74.388 93.9369 74.0781 93.3953 73.8568C92.851 73.6344 92.3182 73.4817 91.7911 73.3932C91.2702 73.3063 90.7859 73.2683 90.3431 73.2823C89.4759 73.3011 88.7155 73.4583 88.063 73.7448C87.4109 74.0364 86.8693 74.4255 86.4499 74.9027C86.0306 75.3844 85.7322 75.9167 85.5603 76.5036C85.3874 77.0869 85.3458 77.6849 85.4343 78.2907C85.5281 78.9026 85.7557 79.475 86.1297 80.0219C86.4969 80.5677 87.015 81.0458 87.6817 81.4479C88.3469 81.8463 89.1687 82.1328 90.1463 82.3083C90.5854 82.3791 90.925 82.5036 91.1765 82.6838C91.4239 82.8687 91.5775 83.0859 91.6374 83.3411C91.6983 83.5911 91.6661 83.8594 91.5447 84.1417C91.4135 84.4338 91.1765 84.6187 90.8406 84.7073C90.5046 84.7943 90.1139 84.7943 89.6609 84.6979C89.2103 84.6005 88.739 84.4245 88.2546 84.1651C87.7702 83.9062 87.3078 83.5729 86.8745 83.1693L85.0281 85.6693Z" fill="#C72F27"/>
<path d="M30.3432 76.8645C30.6505 76.8645 30.9448 76.9203 31.2338 77.0271C31.5229 77.138 31.7598 77.2959 31.9526 77.5088C32.1426 77.7177 32.2417 77.9765 32.2453 78.2812V87.8359H36.1322V78.2812C36.1229 77.4255 35.9604 76.6797 35.6349 76.0416C35.3068 75.4027 34.8693 74.8697 34.3197 74.4401C33.7702 74.014 33.1505 73.6937 32.464 73.4765C31.7792 73.264 31.0708 73.1484 30.3432 73.1432C29.6073 73.1484 28.8989 73.264 28.2088 73.4765C27.5188 73.6937 26.8989 74.014 26.3442 74.4401C25.7896 74.8697 25.351 75.4027 25.0254 76.0416C24.7 76.6797 24.536 77.4255 24.5265 78.2812V87.8359H28.4136V78.2812C28.4188 77.9765 28.5213 77.7177 28.7078 77.5088C28.8989 77.2959 29.1412 77.138 29.4344 77.0271C29.7234 76.9203 30.0306 76.8645 30.3432 76.8645Z" fill="#C72F27"/>
<path d="M43.4448 76.8645C43.7522 76.8645 44.0464 76.9203 44.3355 77.0271C44.6246 77.138 44.8615 77.2959 45.0542 77.5088C45.2443 77.7177 45.3418 77.9765 45.347 78.2812V87.8359H49.2339V78.2812C49.2246 77.4255 49.062 76.6797 48.735 76.0416C48.4094 75.4027 47.9708 74.8697 47.4214 74.4401C46.8719 74.014 46.2522 73.6937 45.5656 73.4765C44.8807 73.264 44.1724 73.1484 43.4448 73.1432C42.7088 73.1484 42.0006 73.264 41.3104 73.4765C40.6219 73.6937 40.0006 74.014 39.4459 74.4401C38.8912 74.8697 38.4527 75.4027 38.1271 76.0416C37.8016 76.6797 37.6375 77.4255 37.6282 78.2812V87.8359H41.5151V78.2812C41.5203 77.9765 41.623 77.7177 41.8094 77.5088C42.0006 77.2959 42.2427 77.138 42.536 77.0271C42.8251 76.9203 43.1323 76.8645 43.4448 76.8645Z" fill="#C72F27"/>
<defs>
<linearGradient id="paint0_linear_304_2" x1="47.7728" y1="76.0389" x2="47.7728" y2="13.1802" gradientUnits="userSpaceOnUse">
<stop stop-color="#972A29"/>
<stop offset="0.01" stop-color="#972A29"/>
<stop offset="0.99" stop-color="#C83026"/>
<stop offset="1" stop-color="#C83026"/>
</linearGradient>
</defs>
</svg>
