<svg width="500" height="500" viewBox="0 0 500 500" fill="none" xmlns="http://www.w3.org/2000/svg">
<path d="M373.366 313.332L338.304 322.134C323.737 342.657 302.767 357.734 278.701 364.991C254.637 372.248 228.845 371.272 205.396 362.213L224.264 342.726C246.645 348.441 270.368 345.189 290.393 333.656C310.419 322.125 325.169 303.224 331.509 280.968L379.547 296.652C377.835 302.33 375.771 307.895 373.366 313.314M409.945 267.385C410.175 263.763 410.294 260.141 410.307 256.518C410.303 245.67 409.239 234.848 407.126 224.209L384.029 237.067C384.943 243.535 385.402 250.059 385.402 256.591C385.402 259.543 385.294 262.459 385.113 265.356L334.834 260.937C334.834 259.47 334.943 257.985 334.943 256.5C334.955 237.139 328.631 218.308 316.942 202.892L314.665 204.703C320.247 212.127 324.594 220.408 327.533 229.225L324.984 230.584C327.735 238.971 329.139 247.744 329.141 256.573C329.141 257.895 329.141 259.217 329.033 260.521L287.664 256.808C287.631 259.963 287.243 263.104 286.507 266.171L325.978 279.175C321.039 296.599 310.568 311.936 296.149 322.86C281.732 333.786 264.154 339.703 246.078 339.719C240.289 339.727 234.516 339.12 228.854 337.908L253.741 312.209L194.986 305.164L190.576 249.455L141.381 299.133C132.017 276.006 130.534 250.426 137.161 226.367C143.788 202.307 158.156 181.113 178.033 166.073L181.286 153.396C200.684 141.072 223.183 134.539 246.15 134.56C249.006 134.56 251.825 134.669 254.626 134.868L263.247 149.357C276.214 151.429 288.692 155.867 300.062 162.451L304.905 157.869C293.049 150.729 279.992 145.819 266.374 143.38L257.663 128.692C253.807 128.379 249.969 128.222 246.15 128.222C224.218 128.164 202.642 133.778 183.509 144.521L187.124 130.033C205.574 121.372 225.704 116.895 246.078 116.92C250.361 116.92 254.59 117.138 258.729 117.518L271.561 93.9741C263.153 92.6688 254.658 92.0088 246.15 92C217.058 92.0108 188.491 99.7664 163.372 114.473C138.253 129.18 117.483 150.31 103.189 175.701C88.8948 201.093 81.5885 229.833 82.0179 258.983C82.4473 288.133 90.5969 316.646 105.633 341.603L88.59 415.676L164.027 398.96C185.434 411.342 209.354 418.722 234.005 420.551C258.655 422.379 283.398 418.608 306.393 409.518C329.385 400.429 350.035 386.255 366.802 368.055C383.566 349.854 396.016 328.098 403.222 304.403L414.771 308.188C418.698 295.228 421.123 281.859 422 268.345L409.909 267.312L409.945 267.385Z" fill="currentColor"/>
</svg>
